# xmcd
#
# Track frame offsets:
#	150
#	19609
#	36636
#	52936
#	80085
#	100991
#	116681
#	118286
#	134275
#	160880
#	168219
#	171671
#
# Disc length: 2717 seconds
#
# Revision: 0
# Processed by: cddbd v1.5.2PL0 Copyright (c) Steve Scherf et al.
# Submitted via: EasyCDDAExtractor 11.5.3.1
#
DISCID=a60a9b0c
DTITLE=The Wildcards - Raising Hell
DYEAR=2007
DGENRE=Blues
TTITLE0=Hang Me Out to Dry
TTITLE1=Fool's Advice
TTITLE2=Hell
TTITLE3=St James Infirmary
TTITLE4=Lucky, Rich and Happy
TTITLE5=Run Joe
TTITLE6=Hellsinki Caravan
TTITLE7=Drunk
TTITLE8=Hoodoo Preacher
TTITLE9=Raising Hell
TTITLE10=The Future of the Blues
TTITLE11=Hard Luck Tale
EXTD=
EXTT0=
EXTT1=
EXTT2=
EXTT3=
EXTT4=
EXTT5=
EXTT6=
EXTT7=
EXTT8=
EXTT9=
EXTT10=
EXTT11=
PLAYORDER=
